[*] Description

Poster: http://cdn.piczend.com/image/hn1s2jtmgejoy1rra3afcvvek.jpeg
Release date: 2013
Genre: Action, War
Plot: American soldiers lost behind enemy lines during the WWII make a horrific discovery: Hitler has a super bomb in development. Against all odds, they set out to find the scientist in charge of the program who is looking to defect.
--------------------------------

Runtime: N/A
Rating: N/A/10
Votes: N/A
Writer(s)/Director(s): David Reed/Don Michael Paul
Actors: Dimitri Diatchenko, Vinnie Jones, Neal McDonough, Tom Sizemore
Trailer: http://www.imdb.com/video/imdb/vi3590301465/

Screenshots:
 
http://cdn.piczend.com/image/56zmj2j190lwq5fcepafxciic.jpeg
 
http://cdn.piczend.com/image/acdpgukcjwmcwdbmpycke4ftv.jpeg
 
http://cdn.piczend.com/image/lgytpqjrtzndaqnmspjwrvcfo.jpeg
 
http://cdn.piczend.com/image/djijseuzsdoinvscjvcpzpifo.jpeg


Mediainfo:
General
Complete name : 	Company of Heroes (2013) BDRip 400p [Zend]/Company of Heroes (2013) BDRip 400p [Zend].mp4
Format : 	MPEG-4
Format profile : 	Base Media
Codec ID : 	isom
File size : 	1.30 GiB
Duration : 	1h 40mn
Overall bit rate : 	1 859 Kbps
Writing application : 	Lavf53.21.1

Video
ID : 	1
Format : 	AVC
Format/Info : 	Advanced Video Codec
Format profile : 	Main@L3.0
Format settings, CABAC : 	Yes
Format settings, ReFrames : 	3 frames
Codec ID : 	avc1
Codec ID/Info : 	Advanced Video Coding
Duration : 	1h 40mn
Bit rate : 	1 500 Kbps
Width : 	720 pixels
Height : 	400 pixels
Display aspect ratio : 	16:9
Frame rate mode : 	Constant
Frame rate : 	23.976 fps
Color space : 	YUV
Chroma subsampling : 	4:2:0
Bit depth : 	8 bits
Scan type : 	Progressive
Bits/(Pixel*Frame) : 	0.217
Stream size : 	1.03 GiB (79%)
Writing library : 	x264 core 123 r2189 35cf912
Encoding settings : 	cabac=1 / ref=3 / deblock=1:0:0 / analyse=0x1:0x111 / me=hex / subme=7 / psy=1 / psy_rd=1.00:0.00 / mixed_ref=0 / me_range=16 / chroma_me=1 / trellis=1 / 8x8dct=0 / cqm=0 / deadzone=21,11 / fast_pskip=1 / chroma_qp_offset=-2 / threads=6 / sliced_threads=0 / nr=0 / decimate=1 / interlaced=0 / bluray_compat=0 / constrained_intra=0 / bframes=3 / b_pyramid=0 / b_adapt=1 / b_bias=0 / direct=1 / weightb=0 / open_gop=1 / weightp=2 / keyint=250 / keyint_min=23 / scenecut=40 / intra_refresh=0 / rc_lookahead=40 / rc=abr / mbtree=1 / bitrate=1500 / ratetol=1.0 / qcomp=0.60 / qpmin=0 / qpmax=69 / qpstep=4 / ip_ratio=1.25 / aq=1:1.00

Audio
ID : 	2
Format : 	AC-3
Format/Info : 	Audio Coding 3
Mode extension : 	CM (complete main)
Format settings, Endianness : 	Big
Codec ID : 	ac-3
Duration : 	1h 40mn
Bit rate mode : 	Constant
Bit rate : 	384 Kbps
Channel(s) : 	2 channels
Channel positions : 	Front: L R
Sampling rate : 	48.0 KHz
Bit depth : 	16 bits
Compression mode : 	Lossy
Delay relative to video : 	42ms
Stream size : 	276 MiB (21%)
